<svg width="69" height="69" viewBox="0 0 69 69" fill="none" xmlns="http://www.w3.org/2000/svg">
<rect width="69" height="69" rx="34.5" fill="#FD5E5A"/>
<path d="M14.65 27.51V31.74L18.94 28.8V45H22.87V23.46H19.78L14.65 27.51ZM34.2313 30.84L38.8213 23.46H34.4113L29.3713 31.71C28.8313 32.61 28.3213 33.6 27.8713 34.65C27.4213 35.7 27.1813 36.84 27.1813 38.04C27.1813 39.09 27.3613 40.05 27.7213 40.95C28.0813 41.85 28.5913 42.63 29.2513 43.29C29.9113 43.95 30.6913 44.46 31.5913 44.85C32.4913 45.24 33.4513 45.42 34.5013 45.42C35.4913 45.42 36.4213 45.24 37.3213 44.85C38.2213 44.46 39.0013 43.92 39.6913 43.26C40.3813 42.6 40.9213 41.82 41.3113 40.92C41.7013 40.02 41.9113 39.03 41.9113 37.98C41.9113 36.99 41.7013 36.06 41.3113 35.19C40.9213 34.32 40.3813 33.57 39.7213 32.94C39.0613 32.31 38.3113 31.8 37.4713 31.44C36.6313 31.08 35.7313 30.9 34.8013 30.9H34.5313C34.4413 30.9 34.3513 30.9 34.2613 30.93L34.2313 30.84ZM37.8613 38.22C37.8613 39.15 37.5313 39.9 36.8713 40.44C36.2113 40.98 35.4313 41.25 34.5313 41.25C34.0813 41.25 33.6613 41.19 33.2713 41.04C32.8813 40.89 32.5213 40.68 32.2213 40.41C31.9213 40.14 31.6813 39.81 31.5013 39.45C31.3213 39.09 31.2313 38.67 31.2313 38.22C31.2313 37.77 31.3213 37.35 31.5013 36.99C31.6813 36.63 31.9213 36.3 32.2213 36.03C32.5213 35.76 32.8813 35.55 33.2713 35.4C33.6613 35.25 34.0813 35.19 34.5313 35.19C34.9813 35.19 35.4013 35.28 35.7913 35.43C36.1813 35.58 36.5413 35.79 36.8413 36.06C37.1413 36.33 37.3813 36.66 37.5613 37.02C37.7413 37.38 37.8313 37.8 37.8313 38.25L37.8613 38.22ZM49.8058 34.38H44.6758V37.8H49.8058V42.81H52.9858V37.8H58.1158V34.38H52.9858V29.37H49.8058V34.38Z" fill="white"/>
</svg>
