<svg width="72" height="72" viewBox="0 0 72 72" fill="none" xmlns="http://www.w3.org/2000/svg">
<circle cx="36" cy="36" r="36" fill="#B3D8E0"/>
<path fill-rule="evenodd" clip-rule="evenodd" d="M36.48 56.3573C35.6474 56.3573 34.8521 56.0464 34.2406 55.4818L19.9482 42.2855C17.439 39.9689 16 36.6826 16 33.2692C16 26.5039 21.504 21 28.2692 21C31.3089 21 34.238 22.1365 36.48 24.1534C38.7219 22.1365 41.6511 21 44.6908 21C51.456 21 56.96 26.5039 56.96 33.2692C56.96 36.6826 55.521 39.969 53.0118 42.2856L38.7957 55.409C38.1743 56.0207 37.353 56.3573 36.48 56.3573Z" stroke="white" stroke-width="2.3"/>
<path d="M40.57 39.2043C40.1733 39.2043 39.8022 39.4004 39.5787 39.7281L37.292 43.0803L34.7251 34.1304C34.59 33.6595 34.1823 33.3181 33.6951 33.2676C33.2078 33.2172 32.7388 33.468 32.5102 33.9012L29.7121 39.2042H17.5352C18.0113 40.0663 18.5908 40.8737 19.2661 41.6042H30.4359C30.8809 41.6042 31.2895 41.3578 31.4972 40.9642L33.2407 37.6599L35.6897 46.1985C35.818 46.6457 36.1932 46.9784 36.6524 47.0523C36.7163 47.0626 36.7801 47.0676 36.8435 47.0676C37.2359 47.0676 37.6088 46.8747 37.8346 46.5438L41.2041 41.604H53.6927C54.3679 40.8735 54.9475 40.0662 55.4236 39.204H40.57V39.2043Z" fill="white"/>
<path d="M40.5711 39.2044C40.1744 39.2044 39.8033 39.4005 39.5797 39.7282L37.2931 43.0803L36.4805 40.2471V47.0113C36.5365 47.0291 36.5943 47.0431 36.6535 47.0527C36.7173 47.0629 36.7812 47.0679 36.8445 47.0679C37.2369 47.0679 37.6099 46.875 37.8357 46.5441L41.2052 41.6043H53.6937C54.3689 40.8739 54.9485 40.0665 55.4247 39.2043H40.5711V39.2044Z" fill="white"/>
</svg>
