<svg width="72" height="72" viewBox="0 0 72 72" fill="none" xmlns="http://www.w3.org/2000/svg">
<circle cx="36" cy="36" r="36" fill="#B3D8E0"/>
<g clip-path="url(#clip0)">
<path d="M28.017 45.0844C28.5073 45.0844 28.9047 44.687 28.9047 44.1967C28.9047 43.7064 28.5073 43.309 28.017 43.309C27.5267 43.309 27.1293 43.7064 27.1293 44.1967C27.1293 44.687 27.5267 45.0844 28.017 45.0844Z" fill="white" stroke="white" stroke-width="0.3"/>
<mask id="path-3-outside-1" maskUnits="userSpaceOnUse" x="13" y="10.7378" width="44" height="46" fill="black">
<rect fill="white" x="13" y="10.7378" width="44" height="46"/>
<path d="M42.5 42L42.8943 41.9836H33.1802C33.1815 40.9143 32.6476 39.9153 31.7578 39.3221C30.8681 38.729 29.7406 38.6204 28.754 39.0328C28.0512 39.327 27.3856 39.7031 26.771 40.1534C24.343 37.6927 23.208 34.2366 23.7044 30.8155C23.731 30.8435 23.7494 30.8767 23.7782 30.904C24.5386 31.6654 25.5711 32.0923 26.6471 32.0902C27.0679 32.0843 27.4852 32.0134 27.8842 31.88L29.2556 33.2521C29.8318 33.8281 30.7657 33.8281 31.3419 33.2521L32.385 34.296C33.2503 35.158 34.6497 35.158 35.5151 34.296L36.5589 33.2529C36.974 32.8378 37.2073 32.2748 37.2073 31.6878C37.2073 31.1008 36.974 30.5378 36.5589 30.1228L35.5158 29.0797C36.0918 28.5035 36.0918 27.5696 35.5158 26.9934L22.994 14.4724C22.4178 13.8964 21.4839 13.8964 20.9078 14.4724L18.8215 12.3861C18.4065 11.971 17.8435 11.7378 17.2565 11.7378C16.6695 11.7378 16.1065 11.971 15.6915 12.3861L14.6483 13.4292C14.2332 13.8443 14 14.4073 14 14.9943C14 15.5813 14.2332 16.1443 14.6483 16.5593L16.7346 18.6456C16.1586 19.2217 16.1586 20.1556 16.7346 20.7318L19.9502 23.9474C15.9602 30.8783 17.354 39.6546 23.295 45.0082C23.0022 45.9392 22.8529 46.9093 22.8524 47.8852V48.6893C20.7253 49.0507 19.1678 50.8917 19.1638 53.0492V54.5246H18.4261C18.0187 54.5246 17.6884 54.8549 17.6884 55.2623C17.6884 55.6697 18.0187 56 18.4261 56H55.3114C55.7188 56 56.0491 55.6697 56.0491 55.2623C56.0491 54.8549 55.7188 54.5246 55.3114 54.5246H54.5737V53.0492C54.5712 50.6056 52.591 48.6254 50.1474 48.6229H33.1802V46.4098H54.5737C55.3885 46.4098 56.0491 45.7493 56.0491 44.9344V43.459C56.0491 42.6442 55.3885 41.9836 54.5737 41.9836H42.8943L42.5 42C42.926 42.0514 42.0709 41.9979 42.5 42ZM15.4753 14.9939C15.4748 14.7982 15.5526 14.6104 15.6915 14.4724L16.7346 13.4292C16.8729 13.2907 17.0607 13.2129 17.2565 13.2129C17.4523 13.2129 17.6401 13.2907 17.7784 13.4292L19.8647 15.5155L17.7777 17.6024L15.6915 15.5162C15.5529 15.3777 15.4752 15.1898 15.4753 14.9939ZM24.8198 29.8609C23.8116 28.8525 23.8116 27.2178 24.8199 26.2095C25.8283 25.2012 27.463 25.2012 28.4713 26.2095C29.4796 27.2178 29.4797 28.8525 28.4715 29.8609C27.4623 30.8673 25.829 30.8673 24.8198 29.8609ZM35.5165 31.1644C35.6551 31.3028 35.7329 31.4906 35.7329 31.6863C35.7329 31.8821 35.6551 32.0699 35.5165 32.2083L34.4734 33.2514C34.3351 33.3899 34.1473 33.4677 33.9515 33.4677C33.7557 33.4677 33.5679 33.3899 33.4296 33.2514L32.3835 32.2083L34.4705 30.1213L35.5165 31.1644ZM21.9509 15.5155L34.4705 28.0343L33.9489 28.5566L30.8196 31.6867L30.2987 32.2075L29.2291 31.1379C29.3242 31.0589 29.4268 30.9903 29.516 30.9033C30.5413 29.878 30.9417 28.3837 30.5664 26.9832C30.1912 25.5827 29.0972 24.4888 27.6967 24.1136C26.2962 23.7383 24.8019 24.1387 23.7767 25.1639C23.6874 25.2532 23.6218 25.3557 23.5421 25.4509L17.7777 19.6887L21.9509 15.5155ZM19.1638 32.3787C19.1667 29.8115 19.8083 27.2855 21.031 25.0282L22.8015 26.7987C22.5963 27.4274 22.5474 28.0966 22.6591 28.7484C22.2988 29.9249 22.1153 31.1483 22.1146 32.3787C22.1228 35.6382 23.3899 38.7685 25.6512 41.1161C24.939 41.8293 24.3444 42.651 23.8896 43.5505C20.8644 40.6215 19.1588 36.5894 19.1638 32.3787ZM53.0983 53.0492V54.5246H20.6392V53.0492C20.6392 51.4195 21.9604 50.0984 23.5901 50.0984H50.1474C51.7771 50.0984 53.0983 51.4195 53.0983 53.0492ZM24.3278 48.6229V47.8852C24.3276 46.9039 24.5053 45.9306 24.8523 45.0126V45.0052C25.6431 42.9174 27.2606 41.2486 29.3228 40.3931C29.8541 40.1713 30.4612 40.2301 30.9401 40.5499C31.419 40.8696 31.706 41.4078 31.7048 41.9836L31.7048 48.6229H24.3278ZM54.5737 44.9344H33.1802V43.459H54.5737V44.9344Z"/>
</mask>
<path d="M42.5 42L42.8943 41.9836H33.1802C33.1815 40.9143 32.6476 39.9153 31.7578 39.3221C30.8681 38.729 29.7406 38.6204 28.754 39.0328C28.0512 39.327 27.3856 39.7031 26.771 40.1534C24.343 37.6927 23.208 34.2366 23.7044 30.8155C23.731 30.8435 23.7494 30.8767 23.7782 30.904C24.5386 31.6654 25.5711 32.0923 26.6471 32.0902C27.0679 32.0843 27.4852 32.0134 27.8842 31.88L29.2556 33.2521C29.8318 33.8281 30.7657 33.8281 31.3419 33.2521L32.385 34.296C33.2503 35.158 34.6497 35.158 35.5151 34.296L36.5589 33.2529C36.974 32.8378 37.2073 32.2748 37.2073 31.6878C37.2073 31.1008 36.974 30.5378 36.5589 30.1228L35.5158 29.0797C36.0918 28.5035 36.0918 27.5696 35.5158 26.9934L22.994 14.4724C22.4178 13.8964 21.4839 13.8964 20.9078 14.4724L18.8215 12.3861C18.4065 11.971 17.8435 11.7378 17.2565 11.7378C16.6695 11.7378 16.1065 11.971 15.6915 12.3861L14.6483 13.4292C14.2332 13.8443 14 14.4073 14 14.9943C14 15.5813 14.2332 16.1443 14.6483 16.5593L16.7346 18.6456C16.1586 19.2217 16.1586 20.1556 16.7346 20.7318L19.9502 23.9474C15.9602 30.8783 17.354 39.6546 23.295 45.0082C23.0022 45.9392 22.8529 46.9093 22.8524 47.8852V48.6893C20.7253 49.0507 19.1678 50.8917 19.1638 53.0492V54.5246H18.4261C18.0187 54.5246 17.6884 54.8549 17.6884 55.2623C17.6884 55.6697 18.0187 56 18.4261 56H55.3114C55.7188 56 56.0491 55.6697 56.0491 55.2623C56.0491 54.8549 55.7188 54.5246 55.3114 54.5246H54.5737V53.0492C54.5712 50.6056 52.591 48.6254 50.1474 48.6229H33.1802V46.4098H54.5737C55.3885 46.4098 56.0491 45.7493 56.0491 44.9344V43.459C56.0491 42.6442 55.3885 41.9836 54.5737 41.9836H42.8943L42.5 42C42.926 42.0514 42.0709 41.9979 42.5 42ZM15.4753 14.9939C15.4748 14.7982 15.5526 14.6104 15.6915 14.4724L16.7346 13.4292C16.8729 13.2907 17.0607 13.2129 17.2565 13.2129C17.4523 13.2129 17.6401 13.2907 17.7784 13.4292L19.8647 15.5155L17.7777 17.6024L15.6915 15.5162C15.5529 15.3777 15.4752 15.1898 15.4753 14.9939ZM24.8198 29.8609C23.8116 28.8525 23.8116 27.2178 24.8199 26.2095C25.8283 25.2012 27.463 25.2012 28.4713 26.2095C29.4796 27.2178 29.4797 28.8525 28.4715 29.8609C27.4623 30.8673 25.829 30.8673 24.8198 29.8609ZM35.5165 31.1644C35.6551 31.3028 35.7329 31.4906 35.7329 31.6863C35.7329 31.8821 35.6551 32.0699 35.5165 32.2083L34.4734 33.2514C34.3351 33.3899 34.1473 33.4677 33.9515 33.4677C33.7557 33.4677 33.5679 33.3899 33.4296 33.2514L32.3835 32.2083L34.4705 30.1213L35.5165 31.1644ZM21.9509 15.5155L34.4705 28.0343L33.9489 28.5566L30.8196 31.6867L30.2987 32.2075L29.2291 31.1379C29.3242 31.0589 29.4268 30.9903 29.516 30.9033C30.5413 29.878 30.9417 28.3837 30.5664 26.9832C30.1912 25.5827 29.0972 24.4888 27.6967 24.1136C26.2962 23.7383 24.8019 24.1387 23.7767 25.1639C23.6874 25.2532 23.6218 25.3557 23.5421 25.4509L17.7777 19.6887L21.9509 15.5155ZM19.1638 32.3787C19.1667 29.8115 19.8083 27.2855 21.031 25.0282L22.8015 26.7987C22.5963 27.4274 22.5474 28.0966 22.6591 28.7484C22.2988 29.9249 22.1153 31.1483 22.1146 32.3787C22.1228 35.6382 23.3899 38.7685 25.6512 41.1161C24.939 41.8293 24.3444 42.651 23.8896 43.5505C20.8644 40.6215 19.1588 36.5894 19.1638 32.3787ZM53.0983 53.0492V54.5246H20.6392V53.0492C20.6392 51.4195 21.9604 50.0984 23.5901 50.0984H50.1474C51.7771 50.0984 53.0983 51.4195 53.0983 53.0492ZM24.3278 48.6229V47.8852C24.3276 46.9039 24.5053 45.9306 24.8523 45.0126V45.0052C25.6431 42.9174 27.2606 41.2486 29.3228 40.3931C29.8541 40.1713 30.4612 40.2301 30.9401 40.5499C31.419 40.8696 31.706 41.4078 31.7048 41.9836L31.7048 48.6229H24.3278ZM54.5737 44.9344H33.1802V43.459H54.5737V44.9344Z" fill="white"/>
<path d="M42.5062 42.1499L42.9006 42.1335L42.8881 41.8337L42.4938 41.8501L42.5062 42.1499ZM42.5 42L42.536 41.7022L42.5188 41.7001L42.5015 41.7L42.5 42ZM33.1802 41.9836L32.8802 41.9833L32.8799 42.2836H33.1802V41.9836ZM28.754 39.0328L28.6383 38.756L28.6381 38.7561L28.754 39.0328ZM26.771 40.1534L26.5575 40.3641L26.7394 40.5484L26.9483 40.3954L26.771 40.1534ZM23.7044 30.8155L23.9222 30.6092L23.4964 30.1597L23.4075 30.7724L23.7044 30.8155ZM23.7782 30.904L23.9905 30.6919L23.9847 30.6864L23.7782 30.904ZM26.6471 32.0902L26.6477 32.3903L26.6513 32.3902L26.6471 32.0902ZM27.8842 31.88L28.0964 31.6679L27.9652 31.5366L27.7891 31.5955L27.8842 31.88ZM29.2556 33.2521L29.0434 33.4642L29.0435 33.4643L29.2556 33.2521ZM31.3419 33.2521L31.5541 33.0401L31.342 32.8278L31.1298 33.04L31.3419 33.2521ZM32.385 34.296L32.1728 34.508L32.1733 34.5085L32.385 34.296ZM35.5151 34.296L35.7268 34.5085L35.7271 34.5082L35.5151 34.296ZM36.5589 33.2529L36.771 33.4651L36.771 33.465L36.5589 33.2529ZM36.5589 30.1228L36.3468 30.3349L36.3468 30.3349L36.5589 30.1228ZM35.5158 29.0797L35.3036 28.8676L35.0916 29.0797L35.3037 29.2918L35.5158 29.0797ZM35.5158 26.9934L35.728 26.7813L35.7279 26.7813L35.5158 26.9934ZM22.994 14.4724L23.2061 14.2602L23.2061 14.2602L22.994 14.4724ZM20.9078 14.4724L20.6956 14.6845L20.9077 14.8966L21.1199 14.6845L20.9078 14.4724ZM18.8215 12.3861L18.6094 12.5982L18.6094 12.5983L18.8215 12.3861ZM15.6915 12.3861L15.9036 12.5983L15.9036 12.5982L15.6915 12.3861ZM14.6483 13.4292L14.8605 13.6414L14.8605 13.6414L14.6483 13.4292ZM14.6483 16.5593L14.8605 16.3472L14.8605 16.3472L14.6483 16.5593ZM16.7346 18.6456L16.9467 18.8577L17.1588 18.6455L16.9467 18.4334L16.7346 18.6456ZM16.7346 20.7318L16.5224 20.9439L16.5224 20.9439L16.7346 20.7318ZM19.9502 23.9474L20.2102 24.0971L20.3249 23.8979L20.1624 23.7353L19.9502 23.9474ZM23.295 45.0082L23.5812 45.0982L23.639 44.9143L23.4958 44.7853L23.295 45.0082ZM22.8524 47.8852L22.5524 47.8851V47.8852H22.8524ZM22.8524 48.6893L22.9026 48.9851L23.1524 48.9427V48.6893H22.8524ZM19.1638 53.0492L18.8638 53.0486V53.0492H19.1638ZM19.1638 54.5246V54.8246H19.4638V54.5246H19.1638ZM54.5737 54.5246H54.2737V54.8246H54.5737V54.5246ZM54.5737 53.0492H54.8737V53.0489L54.5737 53.0492ZM50.1474 48.6229L50.1477 48.3229H50.1474V48.6229ZM33.1802 48.6229H32.8802V48.9229H33.1802V48.6229ZM33.1802 46.4098V46.1098H32.8802V46.4098H33.1802ZM15.4753 14.9939L15.7753 14.9942L15.7753 14.9931L15.4753 14.9939ZM15.6915 14.4724L15.9029 14.6851L15.9036 14.6845L15.6915 14.4724ZM16.7346 13.4292L16.9467 13.6414L16.9468 13.6413L16.7346 13.4292ZM17.7784 13.4292L17.5662 13.6413L17.5663 13.6414L17.7784 13.4292ZM19.8647 15.5155L20.0768 15.7276L20.2889 15.5155L20.0768 15.3033L19.8647 15.5155ZM17.7777 17.6024L17.5656 17.8146L17.7777 18.0267L17.9898 17.8146L17.7777 17.6024ZM15.6915 15.5162L15.9036 15.3041L15.9036 15.3041L15.6915 15.5162ZM24.8198 29.8609L24.6077 30.073L24.608 30.0733L24.8198 29.8609ZM28.4715 29.8609L28.6833 30.0733L28.6836 30.073L28.4715 29.8609ZM35.5165 31.1644L35.7285 30.9522L35.7284 30.952L35.5165 31.1644ZM35.5165 32.2083L35.3045 31.996L35.3044 31.9961L35.5165 32.2083ZM34.4734 33.2514L34.2613 33.0393L34.2612 33.0394L34.4734 33.2514ZM33.4296 33.2514L33.6418 33.0394L33.6414 33.039L33.4296 33.2514ZM32.3835 32.2083L32.1714 31.9961L31.9589 32.2086L32.1717 32.4207L32.3835 32.2083ZM34.4705 30.1213L34.6823 29.9089L34.4702 29.6973L34.2583 29.9092L34.4705 30.1213ZM21.9509 15.5155L22.163 15.3033L21.9509 15.0912L21.7387 15.3033L21.9509 15.5155ZM34.4705 28.0343L34.6828 28.2463L34.8946 28.0342L34.6826 27.8222L34.4705 28.0343ZM33.9489 28.5566L34.1611 28.7687L34.1612 28.7686L33.9489 28.5566ZM30.8196 31.6867L31.0317 31.8988L31.0317 31.8988L30.8196 31.6867ZM30.2987 32.2075L30.0866 32.4197L30.2987 32.6318L30.5109 32.4197L30.2987 32.2075ZM29.2291 31.1379L29.0375 30.907L28.7841 31.1172L29.0169 31.35L29.2291 31.1379ZM29.516 30.9033L29.7255 31.1181L29.7282 31.1154L29.516 30.9033ZM23.7767 25.1639L23.9888 25.3761L23.7767 25.1639ZM23.5421 25.4509L23.33 25.6631L23.5618 25.8947L23.7721 25.6435L23.5421 25.4509ZM17.7777 19.6887L17.5656 19.4765L17.3534 19.6887L17.5656 19.9008L17.7777 19.6887ZM19.1638 32.3787L19.4638 32.379V32.379L19.1638 32.3787ZM21.031 25.0282L21.2431 24.8161L20.9587 24.5317L20.7672 24.8853L21.031 25.0282ZM22.8015 26.7987L23.0867 26.8917L23.1438 26.7167L23.0136 26.5865L22.8015 26.7987ZM22.6591 28.7484L22.9459 28.8363L22.9668 28.7681L22.9548 28.6978L22.6591 28.7484ZM22.1146 32.3787L21.8146 32.3785L21.8147 32.3794L22.1146 32.3787ZM25.6512 41.1161L25.8635 41.328L26.0714 41.1198L25.8673 40.9079L25.6512 41.1161ZM23.8896 43.5505L23.6809 43.766L23.9735 44.0493L24.1573 43.6859L23.8896 43.5505ZM53.0983 54.5246V54.8246H53.3983V54.5246H53.0983ZM20.6392 54.5246H20.3392V54.8246H20.6392V54.5246ZM24.3278 48.6229H24.0278V48.9229H24.3278V48.6229ZM24.3278 47.8852H24.6278V47.8852L24.3278 47.8852ZM24.8523 45.0126L25.1329 45.1187L25.1523 45.0674V45.0126H24.8523ZM24.8523 45.0052L24.5717 44.899L24.5523 44.9503V45.0052H24.8523ZM29.3228 40.3931L29.4377 40.6702L29.4383 40.67L29.3228 40.3931ZM30.9401 40.5499L30.7735 40.7994L30.9401 40.5499ZM31.7048 41.9836L31.4048 41.983V41.9836H31.7048ZM31.7048 48.6229V48.9229H32.0048V48.6229H31.7048ZM54.5737 44.9344V45.2344H54.8737V44.9344H54.5737ZM33.1802 44.9344H32.8802V45.2344H33.1802V44.9344ZM33.1802 43.459V43.159H32.8802V43.459H33.1802ZM54.5737 43.459H54.8737V43.159H54.5737V43.459ZM42.8943 41.6836H33.1802V42.2836H42.8943V41.6836ZM33.4802 41.9839C33.4816 40.8142 32.8975 39.7214 31.9242 39.0725L31.5914 39.5717C32.3976 40.1092 32.8813 41.0144 32.8802 41.9833L33.4802 41.9839ZM31.9242 39.0725C30.9509 38.4236 29.7175 38.3048 28.6383 38.756L28.8697 39.3096C29.7636 38.9359 30.7852 39.0343 31.5914 39.5717L31.9242 39.0725ZM28.6381 38.7561C27.9136 39.0594 27.2274 39.4471 26.5937 39.9114L26.9483 40.3954C27.5439 39.9591 28.1888 39.5946 28.8698 39.3095L28.6381 38.7561ZM26.9846 39.9426C24.6226 37.5488 23.5184 34.1867 24.0013 30.8586L23.4075 30.7724C22.8976 34.2865 24.0635 37.8365 26.5575 40.3641L26.9846 39.9426ZM23.4866 31.0218C23.4858 31.0209 23.4855 31.0203 23.5013 31.0412C23.5132 31.0569 23.5378 31.0895 23.5717 31.1216L23.9847 30.6864C23.9897 30.6912 23.9907 30.6936 23.9796 30.6789C23.9756 30.6736 23.9669 30.6619 23.9584 30.6513C23.9493 30.6396 23.9371 30.6249 23.9222 30.6092L23.4866 31.0218ZM23.5659 31.116C24.3827 31.9338 25.4918 32.3924 26.6477 32.3902L26.6465 31.7902C25.6503 31.7921 24.6944 31.3969 23.9904 30.692L23.5659 31.116ZM26.6513 32.3902C27.103 32.3838 27.5509 32.3077 27.9793 32.1645L27.7891 31.5955C27.4194 31.7191 27.0327 31.7848 26.6429 31.7903L26.6513 32.3902ZM27.6721 32.0921L29.0434 33.4642L29.4678 33.04L28.0964 31.6679L27.6721 32.0921ZM29.0435 33.4643C29.7368 34.1574 30.8607 34.1574 31.554 33.4643L31.1298 33.04C30.6708 33.4988 29.9267 33.4988 29.4677 33.04L29.0435 33.4643ZM31.1297 33.4642L32.1728 34.508L32.5972 34.0839L31.5541 33.0401L31.1297 33.4642ZM32.1733 34.5085C33.1556 35.4871 34.7444 35.4871 35.7268 34.5085L35.3033 34.0834C34.5551 34.8288 33.345 34.8288 32.5967 34.0834L32.1733 34.5085ZM35.7271 34.5082L36.771 33.4651L36.3469 33.0407L35.303 34.0838L35.7271 34.5082ZM36.771 33.465C37.2424 32.9937 37.5072 32.3544 37.5072 31.6878H36.9073C36.9073 32.1953 36.7056 32.6819 36.3468 33.0407L36.771 33.465ZM37.5072 31.6878C37.5072 31.0212 37.2424 30.3819 36.771 29.9106L36.3468 30.3349C36.7056 30.6937 36.9073 31.1804 36.9073 31.6878H37.5072ZM36.771 29.9106L35.7279 28.8675L35.3037 29.2918L36.3468 30.3349L36.771 29.9106ZM35.728 29.2918C36.4211 28.5985 36.4211 27.4746 35.728 26.7813L35.3036 27.2055C35.7625 27.6645 35.7625 28.4086 35.3036 28.8676L35.728 29.2918ZM35.7279 26.7813L23.2061 14.2602L22.7819 14.6845L35.3037 27.2056L35.7279 26.7813ZM23.2061 14.2602C22.5128 13.5671 21.389 13.5671 20.6957 14.2602L21.1199 14.6845C21.5789 14.2257 22.3229 14.2257 22.7819 14.6845L23.2061 14.2602ZM21.1199 14.2602L19.0337 12.174L18.6094 12.5983L20.6956 14.6845L21.1199 14.2602ZM19.0337 12.174C18.5624 11.7026 17.9231 11.4378 17.2565 11.4378V12.0378C17.7639 12.0378 18.2506 12.2394 18.6094 12.5982L19.0337 12.174ZM17.2565 11.4378C16.5899 11.4378 15.9506 11.7026 15.4793 12.174L15.9036 12.5982C16.2624 12.2394 16.749 12.0378 17.2565 12.0378V11.4378ZM15.4793 12.174L14.4362 13.2171L14.8605 13.6414L15.9036 12.5983L15.4793 12.174ZM14.4362 13.2171C13.9648 13.6884 13.7 14.3277 13.7 14.9943H14.3C14.3 14.4868 14.5016 14.0002 14.8605 13.6414L14.4362 13.2171ZM13.7 14.9943C13.7 15.6609 13.9648 16.3002 14.4362 16.7715L14.8605 16.3472C14.5016 15.9884 14.3 15.5017 14.3 14.9943H13.7ZM14.4362 16.7715L16.5224 18.8577L16.9467 18.4334L14.8605 16.3472L14.4362 16.7715ZM16.5224 18.4335C15.8293 19.1268 15.8293 20.2506 16.5224 20.9439L16.9467 20.5197C16.4879 20.0607 16.4879 19.3167 16.9467 18.8577L16.5224 18.4335ZM16.5224 20.9439L19.7381 24.1596L20.1624 23.7353L16.9467 20.5197L16.5224 20.9439ZM19.6902 23.7978C15.6296 30.8512 17.0481 39.7827 23.0941 45.231L23.4958 44.7853C17.6599 39.5264 16.2908 30.9053 20.2102 24.0971L19.6902 23.7978ZM23.0088 44.9182C22.7069 45.8782 22.5529 46.8787 22.5524 47.8851L23.1524 47.8854C23.1529 46.94 23.2975 46.0001 23.5812 45.0982L23.0088 44.9182ZM22.5524 47.8852V48.6893H23.1524V47.8852H22.5524ZM22.8021 48.3936C20.5311 48.7794 18.8681 50.745 18.8638 53.0486L19.4638 53.0497C19.4676 51.0383 20.9196 49.322 22.9026 48.9851L22.8021 48.3936ZM18.8638 53.0492V54.5246H19.4638V53.0492H18.8638ZM19.1638 54.2246H18.4261V54.8246H19.1638V54.2246ZM18.4261 54.2246C17.853 54.2246 17.3884 54.6892 17.3884 55.2623H17.9884C17.9884 55.0205 18.1844 54.8246 18.4261 54.8246V54.2246ZM17.3884 55.2623C17.3884 55.8354 17.853 56.3 18.4261 56.3V55.7C18.1844 55.7 17.9884 55.504 17.9884 55.2623H17.3884ZM18.4261 56.3H55.3114V55.7H18.4261V56.3ZM55.3114 56.3C55.8845 56.3 56.3491 55.8354 56.3491 55.2623H55.7491C55.7491 55.504 55.5531 55.7 55.3114 55.7V56.3ZM56.3491 55.2623C56.3491 54.6892 55.8845 54.2246 55.3114 54.2246V54.8246C55.5531 54.8246 55.7491 55.0205 55.7491 55.2623H56.3491ZM55.3114 54.2246H54.5737V54.8246H55.3114V54.2246ZM54.8737 54.5246V53.0492H54.2737V54.5246H54.8737ZM54.8737 53.0489C54.8711 50.4399 52.7567 48.3256 50.1477 48.3229L50.1471 48.9229C52.4252 48.9252 54.2714 50.7714 54.2737 53.0495L54.8737 53.0489ZM50.1474 48.3229H33.1802V48.9229H50.1474V48.3229ZM33.4802 48.6229V46.4098H32.8802V48.6229H33.4802ZM33.1802 46.7098H54.5737V46.1098H33.1802V46.7098ZM54.5737 46.7098C55.5542 46.7098 56.3491 45.915 56.3491 44.9344H55.7491C55.7491 45.5836 55.2228 46.1098 54.5737 46.1098V46.7098ZM56.3491 44.9344V43.459H55.7491V44.9344H56.3491ZM56.3491 43.459C56.3491 42.4785 55.5542 41.6836 54.5737 41.6836V42.2836C55.2228 42.2836 55.7491 42.8099 55.7491 43.459H56.3491ZM54.5737 41.6836H42.8943V42.2836H54.5737V41.6836ZM42.464 42.2978C42.4894 42.3009 42.5089 42.3034 42.5236 42.3055C42.5388 42.3077 42.5464 42.309 42.5487 42.3094C42.5501 42.3097 42.547 42.3091 42.5414 42.3077C42.5386 42.307 42.533 42.3055 42.5259 42.3032C42.5222 42.302 42.5173 42.3003 42.5115 42.298C42.5058 42.2958 42.4978 42.2925 42.4884 42.2878C42.4795 42.2834 42.4653 42.2758 42.4491 42.2644C42.4407 42.2585 42.4304 42.2506 42.4193 42.2404C42.4084 42.2303 42.3948 42.2164 42.3814 42.1982C42.3679 42.1799 42.3529 42.1553 42.3413 42.1241C42.3295 42.0923 42.3218 42.0548 42.3227 42.0133C42.3236 41.9717 42.3332 41.933 42.3482 41.8991C42.3628 41.8659 42.3814 41.8401 42.3983 41.821C42.4152 41.802 42.4319 41.7881 42.4454 41.7782C42.459 41.7683 42.4715 41.7609 42.4815 41.7556C42.5009 41.7453 42.5176 41.7393 42.5278 41.7359C42.5387 41.7323 42.5478 41.73 42.5541 41.7286C42.5607 41.7271 42.5663 41.7261 42.5704 41.7254C42.5784 41.7241 42.5846 41.7234 42.588 41.7231C42.5917 41.7228 42.5944 41.7226 42.5959 41.7225C42.5987 41.7224 42.5999 41.7224 42.5987 41.7224C42.5964 41.7224 42.591 41.7224 42.5822 41.7221C42.5649 41.7217 42.5419 41.7206 42.5176 41.7191C42.4933 41.7175 42.4703 41.7157 42.4531 41.7141C42.4444 41.7132 42.439 41.7126 42.4367 41.7122C42.4355 41.7121 42.4367 41.7122 42.4395 41.7127C42.4409 41.713 42.4436 41.7135 42.4472 41.7143C42.4505 41.715 42.4566 41.7165 42.4644 41.7188C42.4684 41.72 42.4738 41.7217 42.4801 41.724C42.4863 41.7262 42.4951 41.7296 42.5054 41.7345C42.5151 41.7391 42.5309 41.7472 42.5488 41.7598C42.5581 41.7663 42.5696 41.7752 42.5818 41.7868C42.594 41.7982 42.6088 41.8142 42.6232 41.8351C42.6377 41.8561 42.6529 41.8841 42.6633 41.9188C42.6739 41.9543 42.6785 41.9939 42.6742 42.0354C42.67 42.0766 42.6576 42.1128 42.6419 42.143C42.6266 42.1725 42.6086 42.195 42.593 42.2114C42.5773 42.2278 42.5622 42.2399 42.55 42.2486C42.5378 42.2573 42.5265 42.2639 42.5175 42.2687C42.5 42.278 42.485 42.2837 42.4756 42.287C42.4657 42.2904 42.4573 42.2928 42.4514 42.2942C42.4454 42.2958 42.4403 42.2968 42.4365 42.2976C42.4291 42.299 42.4234 42.2998 42.4205 42.3001C42.4148 42.3008 42.4117 42.301 42.413 42.3009C42.4154 42.3008 42.4231 42.3004 42.4385 42.3002C42.4533 42.3 42.473 42.2999 42.4985 42.3L42.5015 41.7C42.4734 41.6999 42.4495 41.6999 42.4295 41.7002C42.4101 41.7005 42.3917 41.7011 42.3755 41.7021C42.3676 41.7026 42.3572 41.7034 42.3458 41.7048C42.34 41.7055 42.332 41.7067 42.3226 41.7085C42.3178 41.7094 42.3118 41.7107 42.305 41.7124C42.2983 41.7141 42.2893 41.7166 42.2787 41.7202C42.2688 41.7237 42.2532 41.7296 42.2354 41.7392C42.2261 41.7441 42.2148 41.7508 42.2023 41.7596C42.19 41.7683 42.1747 41.7806 42.159 41.7971C42.1433 41.8136 42.1252 41.8363 42.1098 41.8658C42.094 41.8961 42.0817 41.9325 42.0774 41.9738C42.0731 42.0153 42.0777 42.055 42.0884 42.0907C42.0988 42.1255 42.1141 42.1536 42.1286 42.1748C42.1431 42.1958 42.158 42.2118 42.1703 42.2234C42.1827 42.2351 42.1943 42.2441 42.2038 42.2507C42.222 42.2635 42.2382 42.2719 42.2484 42.2767C42.2593 42.2818 42.2686 42.2855 42.2754 42.288C42.2824 42.2905 42.2885 42.2924 42.2934 42.2939C42.3028 42.2967 42.3109 42.2986 42.3164 42.2999C42.3223 42.3012 42.3275 42.3022 42.3318 42.303C42.3402 42.3045 42.3481 42.3057 42.3546 42.3066C42.3677 42.3084 42.3815 42.3099 42.3944 42.3112C42.4206 42.3137 42.4509 42.3161 42.4801 42.3179C42.5092 42.3197 42.5397 42.3212 42.5659 42.3219C42.5789 42.3223 42.5928 42.3225 42.606 42.3223C42.6125 42.3223 42.6205 42.3221 42.6291 42.3216C42.6334 42.3213 42.6388 42.321 42.6447 42.3204C42.6504 42.3199 42.6586 42.319 42.6684 42.3174C42.6733 42.3165 42.6797 42.3154 42.6869 42.3137C42.6939 42.3121 42.7037 42.3097 42.7151 42.3059C42.7258 42.3024 42.7429 42.2962 42.7626 42.2857C42.7728 42.2803 42.7855 42.2728 42.7992 42.2628C42.8129 42.2528 42.8297 42.2388 42.8467 42.2197C42.8637 42.2005 42.8824 42.1746 42.8971 42.1413C42.9121 42.1073 42.9216 42.0685 42.9226 42.0267C42.9235 41.9852 42.9158 41.9476 42.9039 41.9156C42.8923 41.8843 42.8772 41.8596 42.8636 41.8412C42.8501 41.8229 42.8365 41.8088 42.8253 41.7986C42.8141 41.7883 42.8037 41.7803 42.7951 41.7742C42.7786 41.7625 42.7639 41.7547 42.7545 41.75C42.7445 41.7451 42.7358 41.7415 42.7294 41.739C42.7228 41.7364 42.717 41.7344 42.7124 41.7329C42.7033 41.7299 42.6955 41.7278 42.6898 41.7264C42.6787 41.7235 42.6684 41.7214 42.6607 41.7199C42.6448 41.7169 42.6266 41.7141 42.6074 41.7114C42.5876 41.7086 42.5639 41.7055 42.536 41.7022L42.464 42.2978ZM15.7753 14.9931C15.775 14.8775 15.821 14.7666 15.9029 14.6851L15.48 14.2596C15.2843 14.4541 15.1746 14.7188 15.1753 14.9947L15.7753 14.9931ZM15.9036 14.6845L16.9467 13.6414L16.5224 13.2171L15.4793 14.2602L15.9036 14.6845ZM16.9468 13.6413C17.0289 13.5591 17.1403 13.5129 17.2565 13.5129V12.9129C16.9811 12.9129 16.717 13.0224 16.5223 13.2172L16.9468 13.6413ZM17.2565 13.5129C17.3727 13.5129 17.4841 13.5591 17.5662 13.6413L17.9907 13.2172C17.796 13.0224 17.5319 12.9129 17.2565 12.9129V13.5129ZM17.5663 13.6414L19.6525 15.7276L20.0768 15.3033L17.9906 13.2171L17.5663 13.6414ZM19.6525 15.3033L17.5656 17.3903L17.9898 17.8146L20.0768 15.7276L19.6525 15.3033ZM17.9898 17.3903L15.9036 15.3041L15.4793 15.7283L17.5656 17.8146L17.9898 17.3903ZM15.9036 15.3041C15.8214 15.2219 15.7752 15.1104 15.7753 14.9942L15.1753 14.9937C15.1751 15.2692 15.2845 15.5336 15.4794 15.7284L15.9036 15.3041ZM25.032 29.6488C24.1409 28.7576 24.1409 27.3128 25.0321 26.4216L24.6078 25.9974C23.4823 27.1228 23.4823 28.9475 24.6077 30.073L25.032 29.6488ZM25.0321 26.4216C25.9232 25.5305 27.368 25.5305 28.2592 26.4216L28.6835 25.9974C27.558 24.8719 25.7333 24.8719 24.6078 25.9974L25.0321 26.4216ZM28.2592 26.4216C29.1504 27.3128 29.1504 28.7576 28.2593 29.6488L28.6836 30.073C29.809 28.9475 29.8089 27.1228 28.6835 25.9974L28.2592 26.4216ZM28.2596 29.6485C27.3675 30.5381 25.9237 30.5381 25.0317 29.6485L24.608 30.0733C25.7342 31.1965 27.557 31.1965 28.6833 30.0733L28.2596 29.6485ZM35.3045 31.3767C35.3867 31.4588 35.4329 31.5702 35.4329 31.6863H36.0329C36.0329 31.4109 35.9234 31.1468 35.7285 30.9522L35.3045 31.3767ZM35.4329 31.6863C35.4329 31.8025 35.3867 31.9139 35.3045 31.996L35.7285 32.4205C35.9234 32.2259 36.0329 31.9618 36.0329 31.6863H35.4329ZM35.3044 31.9961L34.2613 33.0393L34.6856 33.4635L35.7287 32.4204L35.3044 31.9961ZM34.2612 33.0394C34.1791 33.1216 34.0677 33.1677 33.9515 33.1677V33.7677C34.2269 33.7677 34.491 33.6583 34.6857 33.4634L34.2612 33.0394ZM33.9515 33.1677C33.8353 33.1677 33.7239 33.1216 33.6418 33.0394L33.2173 33.4634C33.412 33.6583 33.6761 33.7677 33.9515 33.7677V33.1677ZM33.6414 33.039L32.5953 31.9958L32.1717 32.4207L33.2177 33.4638L33.6414 33.039ZM32.5956 32.4204L34.6826 30.3334L34.2583 29.9092L32.1714 31.9961L32.5956 32.4204ZM34.2586 30.3337L35.3047 31.3768L35.7284 30.952L34.6823 29.9089L34.2586 30.3337ZM21.7388 15.7276L34.2583 28.2465L34.6826 27.8222L22.163 15.3033L21.7388 15.7276ZM34.2582 27.8224L33.7366 28.3446L34.1612 28.7686L34.6828 28.2463L34.2582 27.8224ZM33.7368 28.3445L30.6074 31.4746L31.0317 31.8988L34.1611 28.7687L33.7368 28.3445ZM30.6074 31.4746L30.0866 31.9954L30.5109 32.4197L31.0317 31.8988L30.6074 31.4746ZM30.5109 31.9954L29.4412 30.9257L29.0169 31.35L30.0866 32.4197L30.5109 31.9954ZM29.4206 31.3688C29.4635 31.3332 29.5039 31.3033 29.559 31.2603C29.6101 31.2206 29.6687 31.1735 29.7255 31.118L29.3066 30.6885C29.2742 30.7201 29.2368 30.7508 29.1905 30.7869C29.1483 30.8197 29.0898 30.8636 29.0375 30.907L29.4206 31.3688ZM29.7282 31.1154C30.8292 30.0144 31.2592 28.4096 30.8562 26.9056L30.2766 27.0609C30.6242 28.3578 30.2534 29.7417 29.3039 30.6911L29.7282 31.1154ZM30.8562 26.9056C30.4532 25.4016 29.2784 24.2268 27.7744 23.8238L27.6191 24.4033C28.9161 24.7509 29.9291 25.7639 30.2766 27.0609L30.8562 26.9056ZM27.7744 23.8238C26.2704 23.4208 24.6656 23.8508 23.5646 24.9518L23.9888 25.3761C24.9383 24.4266 26.3221 24.0558 27.6191 24.4033L27.7744 23.8238ZM23.5646 24.9518C23.506 25.0104 23.4578 25.0706 23.4182 25.122C23.3751 25.1779 23.3468 25.2169 23.3121 25.2583L23.7721 25.6435C23.8171 25.5897 23.8614 25.5299 23.8934 25.4883C23.9288 25.4424 23.9582 25.4067 23.9888 25.3761L23.5646 24.9518ZM23.7542 25.2387L17.9898 19.4765L17.5656 19.9008L23.33 25.6631L23.7542 25.2387ZM17.9898 19.9008L22.163 15.7276L21.7387 15.3033L17.5656 19.4765L17.9898 19.9008ZM19.4638 32.379C19.4666 29.8617 20.0958 27.3846 21.2948 25.1711L20.7672 24.8853C19.5208 27.1864 18.8667 29.7614 18.8638 32.3783L19.4638 32.379ZM20.8188 25.2403L22.5893 27.0108L23.0136 26.5865L21.2431 24.8161L20.8188 25.2403ZM22.5163 26.7056C22.296 27.3807 22.2435 28.0992 22.3634 28.7991L22.9548 28.6978C22.8513 28.094 22.8966 27.4741 23.0867 26.8917L22.5163 26.7056ZM22.3722 28.6606C22.0033 29.8654 21.8154 31.1184 21.8146 32.3785L22.4146 32.3788C22.4153 31.1782 22.5944 29.9843 22.9459 28.8363L22.3722 28.6606ZM21.8147 32.3794C21.823 35.7163 23.1201 38.921 25.4351 41.3242L25.8673 40.9079C23.6596 38.6161 22.4226 35.5601 22.4146 32.3779L21.8147 32.3794ZM25.4389 40.9041C24.7043 41.6398 24.091 42.4873 23.6218 43.4151L24.1573 43.6859C24.5978 42.8147 25.1737 42.0188 25.8635 41.328L25.4389 40.9041ZM24.0982 43.335C21.1316 40.4626 19.4589 36.5084 19.4638 32.379L18.8638 32.3783C18.8587 36.6704 20.5973 40.7805 23.6809 43.766L24.0982 43.335ZM52.7983 53.0492V54.5246H53.3983V53.0492H52.7983ZM53.0983 54.2246H20.6392V54.8246H53.0983V54.2246ZM20.9392 54.5246V53.0492H20.3392V54.5246H20.9392ZM20.9392 53.0492C20.9392 51.5852 22.1261 50.3984 23.5901 50.3984V49.7984C21.7947 49.7984 20.3392 51.2538 20.3392 53.0492H20.9392ZM23.5901 50.3984H50.1474V49.7984H23.5901V50.3984ZM50.1474 50.3984C51.6114 50.3984 52.7983 51.5852 52.7983 53.0492H53.3983C53.3983 51.2538 51.9428 49.7984 50.1474 49.7984V50.3984ZM24.6278 48.6229V47.8852H24.0278V48.6229H24.6278ZM24.6278 47.8852C24.6276 46.9401 24.7988 46.0028 25.1329 45.1187L24.5716 44.9065C24.2119 45.8584 24.0276 46.8677 24.0278 47.8853L24.6278 47.8852ZM25.1523 45.0126V45.0052H24.5523V45.0126H25.1523ZM25.1328 45.1115C25.8943 43.101 27.452 41.494 29.4377 40.6702L29.2078 40.116C27.0693 41.0032 25.3918 42.7338 24.5717 44.899L25.1328 45.1115ZM29.4383 40.67C29.877 40.4868 30.3782 40.5354 30.7735 40.7994L31.1067 40.3004C30.5443 39.9249 29.8312 39.8557 29.2072 40.1163L29.4383 40.67ZM30.7735 40.7994C31.1688 41.0633 31.4058 41.5076 31.4048 41.983L32.0048 41.9842C32.0062 41.308 31.6691 40.6759 31.1067 40.3004L30.7735 40.7994ZM31.4048 41.9836L31.4048 48.6229H32.0048L32.0048 41.9836H31.4048ZM31.7048 48.3229H24.3278V48.9229H31.7048V48.3229ZM54.5737 44.6344H33.1802V45.2344H54.5737V44.6344ZM33.4802 44.9344V43.459H32.8802V44.9344H33.4802ZM33.1802 43.759H54.5737V43.159H33.1802V43.759ZM54.2737 43.459V44.9344H54.8737V43.459H54.2737Z" fill="white" mask="url(#path-3-outside-1)"/>
</g>
<defs>
<clipPath id="clip0">
<rect width="45" height="45" fill="white" transform="translate(14 11)"/>
</clipPath>
</defs>
</svg>
