<svg width="72" height="72" viewBox="0 0 72 72" fill="none" xmlns="http://www.w3.org/2000/svg">
<circle cx="36" cy="36" r="36" fill="#B3D8E0"/>
<path d="M54.3761 21.4795L50.5194 17.6225C50.1211 17.2253 49.5815 17.0022 49.0189 17.0022C48.4564 17.0022 47.9168 17.2253 47.5185 17.6225L47.3403 17.801C46.943 18.1993 46.7199 18.7389 46.7199 19.3015C46.7199 19.864 46.943 20.4036 47.3403 20.8019L47.9332 21.3945L44.7303 24.5968L41.4117 21.279C41.0133 20.8818 40.4738 20.6588 39.9112 20.6588C39.3487 20.6588 38.8091 20.8818 38.4108 21.279L38.2325 21.4576C38.0355 21.6546 37.8792 21.8885 37.7725 22.146C37.6659 22.4034 37.611 22.6794 37.611 22.958C37.611 23.2367 37.6659 23.5126 37.7725 23.77C37.8792 24.0275 38.0355 24.2614 38.2325 24.4584L38.4102 24.6358L24.7163 38.3287C24.3312 38.7147 24.1149 39.2377 24.1149 39.783C24.1149 40.3283 24.3312 40.8513 24.7163 41.2373L25.5085 42.0295L20.1521 47.3865C20.0522 47.4865 19.996 47.622 19.996 47.7634C19.996 47.9047 20.0522 48.0403 20.1521 48.1403L21.6283 49.6165L16.1549 55.0899C16.104 55.1391 16.0634 55.1979 16.0354 55.263C16.0075 55.3281 15.9928 55.398 15.9922 55.4688C15.9916 55.5396 16.0051 55.6098 16.0319 55.6754C16.0588 55.7409 16.0984 55.8004 16.1484 55.8505C16.1985 55.9005 16.2581 55.9401 16.3236 55.9669C16.3891 55.9937 16.4593 56.0072 16.5301 56.0065C16.6009 56.0059 16.6709 55.9912 16.7359 55.9632C16.801 55.9353 16.8598 55.8946 16.909 55.8437L22.3821 50.3706L23.8586 51.8468C23.9081 51.8964 23.9668 51.9357 24.0315 51.9625C24.0962 51.9893 24.1655 52.0031 24.2355 52.0031C24.3055 52.0031 24.3748 51.9893 24.4395 51.9625C24.5042 51.9357 24.5629 51.8964 24.6124 51.8468L29.9691 46.4904L30.7613 47.2826C31.1474 47.6675 31.6704 47.8837 32.2156 47.8837C32.7608 47.8837 33.2838 47.6675 33.6699 47.2826L35.2847 45.6677L42.6073 38.3446L47.3628 33.5887L47.5405 33.7663C47.9387 34.1638 48.4783 34.387 49.0409 34.387C49.6035 34.387 50.1431 34.1638 50.5413 33.7663L50.7196 33.5878C51.117 33.1896 51.3402 32.6501 51.3402 32.0875C51.3402 31.525 51.117 30.9854 50.7196 30.5872L47.4021 27.2686L50.6044 24.066L51.197 24.6589C51.5953 25.0562 52.1349 25.2793 52.6974 25.2793C53.26 25.2793 53.7996 25.0562 54.1979 24.6589L54.3761 24.4804C54.7736 24.0822 54.9969 23.5426 54.9969 22.9799C54.9969 22.4173 54.7736 21.8777 54.3761 21.4795ZM29.215 45.7366L24.2355 50.7158L22.7596 49.2399L21.2837 47.7643L26.2626 42.7839L27.7388 44.2601L29.215 45.7366ZM44.6715 34.7721L42.606 32.7069C42.5569 32.656 42.498 32.6154 42.433 32.5874C42.3679 32.5595 42.298 32.5447 42.2272 32.5441C42.1564 32.5435 42.0862 32.557 42.0206 32.5838C41.9551 32.6105 41.8956 32.6501 41.8455 32.7002C41.7954 32.7502 41.7558 32.8098 41.729 32.8753C41.7022 32.9408 41.6886 33.011 41.6892 33.0818C41.6898 33.1526 41.7045 33.2226 41.7325 33.2876C41.7604 33.3527 41.801 33.4115 41.8519 33.4607L43.9177 35.5262L42.2319 37.2136L41.0384 36.0201C40.9383 35.9198 40.8025 35.8633 40.6608 35.8632C40.5191 35.863 40.3831 35.9191 40.2828 36.0192C40.1825 36.1193 40.126 36.2551 40.1258 36.3968C40.1257 36.5385 40.1818 36.6745 40.2819 36.7748L41.475 37.9683L39.788 39.6556L37.7225 37.5893C37.673 37.5397 37.6142 37.5005 37.5495 37.4737C37.4848 37.4469 37.4155 37.4331 37.3455 37.4331C37.2754 37.4331 37.2061 37.4469 37.1414 37.4737C37.0767 37.5005 37.0179 37.5397 36.9684 37.5893C36.9189 37.6388 36.8796 37.6976 36.8528 37.7623C36.826 37.8269 36.8122 37.8963 36.8122 37.9663C36.8122 38.0363 36.826 38.1057 36.8528 38.1704C36.8796 38.2351 36.9189 38.2938 36.9684 38.3434L39.0339 40.4085L37.3468 42.0959L36.1534 40.9024C36.1038 40.8529 36.0451 40.8136 35.9804 40.7868C35.9157 40.76 35.8463 40.7463 35.7763 40.7463C35.7063 40.7463 35.6369 40.76 35.5723 40.7868C35.5076 40.8136 35.4488 40.8529 35.3993 40.9024C35.3497 40.9519 35.3105 41.0107 35.2837 41.0754C35.2569 41.1401 35.2431 41.2095 35.2431 41.2795C35.2431 41.3495 35.2569 41.4188 35.2837 41.4835C35.3105 41.5482 35.3497 41.607 35.3993 41.6565L36.5952 42.85L34.9078 44.5374L32.8411 42.4725C32.7411 42.3725 32.6056 42.3164 32.4642 42.3164C32.3228 42.3164 32.1873 42.3725 32.0873 42.4725C31.9873 42.5724 31.9312 42.708 31.9312 42.8494C31.9312 42.9907 31.9873 43.1263 32.0873 43.2263L34.1528 45.2921L32.9154 46.5291C32.7295 46.7147 32.4774 46.819 32.2147 46.819C31.9519 46.819 31.6999 46.7147 31.5139 46.5291L25.4707 40.4838C25.285 40.2978 25.1807 40.0458 25.1807 39.783C25.1807 39.5202 25.285 39.2682 25.4707 39.0822L39.164 25.3899L46.6087 32.8349L44.6715 34.7721ZM49.9658 32.834L49.7872 33.0125C49.589 33.2101 49.3206 33.321 49.0407 33.321C48.7609 33.321 48.4925 33.2101 48.2942 33.0125L38.9867 23.7037C38.8886 23.6057 38.8107 23.4894 38.7576 23.3613C38.7045 23.2332 38.6772 23.0959 38.6772 22.9572C38.6772 22.8186 38.7045 22.6813 38.7576 22.5532C38.8107 22.4251 38.8886 22.3088 38.9867 22.2108L39.1649 22.0322C39.363 21.8345 39.6315 21.7235 39.9114 21.7235C40.1913 21.7235 40.4597 21.8345 40.6579 22.0322L44.3513 25.7266L46.2708 27.6461L49.9652 31.3404C50.163 31.5386 50.2742 31.8071 50.2743 32.0871C50.2744 32.3671 50.1635 32.6357 49.9658 32.834ZM46.648 26.5154L45.4835 25.3509L48.6858 22.1486L49.8503 23.3131L46.648 26.5154ZM53.622 23.7272L53.4438 23.9057C53.2456 24.1034 52.9772 24.2144 52.6973 24.2144C52.4174 24.2144 52.1489 24.1034 51.9508 23.9057L50.981 22.9359L49.0615 21.0164L48.0932 20.0475C47.8953 19.8494 47.7842 19.5809 47.7842 19.301C47.7842 19.0211 47.8953 18.7526 48.0932 18.5545L48.2714 18.376C48.4695 18.1783 48.738 18.0673 49.0179 18.0673C49.2978 18.0673 49.5662 18.1783 49.7644 18.376L53.6223 22.2342C53.8201 22.4323 53.9312 22.7008 53.9311 22.9808C53.931 23.2607 53.8199 23.5292 53.622 23.7272Z" fill="white" stroke="white" stroke-width="0.5"/>
</svg>
