<svg width="72" height="72" viewBox="0 0 72 72" fill="none" xmlns="http://www.w3.org/2000/svg">
<circle cx="36" cy="36" r="36" fill="#B3D8E0"/>
<path fill-rule="evenodd" clip-rule="evenodd" d="M29.3661 60.0001H28.783C25.0428 60.0001 22 56.9572 22 53.2171C22 49.4769 25.0428 46.4341 28.783 46.4341H33.3868V42.0547H36.1491V46.4341H46.216C48.8541 46.4341 51.0431 44.7998 51.663 42.3676L54.3397 43.0497C53.4028 46.7263 50.1381 49.1964 46.216 49.1964H36.149V53.2171C36.149 56.9572 33.1062 60.0001 29.3661 60.0001ZM28.7829 49.1963C26.5659 49.1963 24.7622 51 24.7622 53.217C24.7622 55.434 26.5659 57.2377 28.7829 57.2377H29.366C31.583 57.2377 33.3867 55.434 33.3867 53.217V49.1963H28.7829Z" fill="white"/>
<path fill-rule="evenodd" clip-rule="evenodd" d="M51.6635 42.3676C51.0436 44.7998 48.8547 46.4341 46.2166 46.4341H36.1496V42.0547H34.707V57.3914C35.6095 56.2394 36.1496 54.7905 36.1496 53.217V49.1963H46.2166C50.1386 49.1963 53.4033 46.7262 54.3402 43.0496L51.6635 42.3676Z" fill="white"/>
<path fill-rule="evenodd" clip-rule="evenodd" d="M48.457 39.2831C48.457 41.94 50.6187 44.1017 53.2757 44.1017C55.9327 44.1017 58.0944 41.9401 58.0943 39.2831C58.0943 36.626 55.9327 34.4644 53.2757 34.4644C50.6187 34.4644 48.457 36.626 48.457 39.2831ZM51.2193 39.2827C51.2193 38.1488 52.1418 37.2263 53.2756 37.2263C54.4095 37.2263 55.332 38.1488 55.3319 39.2827C55.3319 40.4166 54.4095 41.3391 53.2756 41.3391C52.1418 41.3391 51.2193 40.4166 51.2193 39.2827Z" fill="white"/>
<path d="M34.7073 43.4359C27.904 43.4359 22.3691 37.901 22.3691 31.0977V18.9519C22.3691 16.5078 24.3576 14.5193 26.8017 14.5193H28.1418V17.2816H26.8017C25.8807 17.2816 25.1314 18.0309 25.1314 18.9519V31.0977C25.1314 36.3779 29.4271 40.6736 34.7073 40.6736C39.9875 40.6736 44.2833 36.3779 44.2833 31.0977V19.1186C44.2833 18.1976 43.534 17.4483 42.613 17.4483H41.2473V14.686H42.613C45.0571 14.686 47.0456 16.6745 47.0456 19.1186V31.0977C47.0456 37.9009 41.5106 43.4359 34.7073 43.4359Z" fill="white"/>
<path d="M42.6127 14.686H41.247V17.4483H42.6127C43.5336 17.4483 44.283 18.1976 44.283 19.1186V31.0977C44.283 36.3779 39.9872 40.6736 34.707 40.6736V43.4359C41.5104 43.4359 47.0452 37.901 47.0452 31.0977V19.1186C47.0453 16.6744 45.0569 14.686 42.6127 14.686Z" fill="white"/>
<path fill-rule="evenodd" clip-rule="evenodd" d="M39.0977 13C37.4984 13 36.1973 14.3011 36.1973 15.9004C36.1973 17.4997 37.4984 18.8008 39.0977 18.8008H41.9366V13H39.0977Z" fill="white"/>
<path fill-rule="evenodd" clip-rule="evenodd" d="M30.2902 13H27.4512V18.8008H30.2902C31.8894 18.8008 33.1906 17.4997 33.1906 15.9004C33.1906 14.3011 31.8895 13 30.2902 13Z" fill="white"/>
</svg>
