<svg width="72" height="72" viewBox="0 0 72 72" fill="none" xmlns="http://www.w3.org/2000/svg">
<circle cx="36" cy="36" r="36" fill="#B3D8E0"/>
<path fill-rule="evenodd" clip-rule="evenodd" d="M56.4157 31.5961V42.4701C56.4157 43.4167 55.6694 44.1849 54.7458 44.1849H46.0833C44.7336 44.1849 43.487 43.4394 42.822 42.2305C40.2919 37.6304 36.6128 33.7921 32.1862 31.1232C30.8418 30.3127 30 28.8456 30 27.2419V18.7186C30 17.7735 30.7514 17 31.6699 17H42.2325C43.1562 17 43.9024 17.7718 43.9024 18.7186V29.8777H54.7458C55.668 29.8777 56.4157 30.6471 56.4157 31.5961Z" stroke="white" stroke-width="2"/>
<path fill-rule="evenodd" clip-rule="evenodd" d="M29.2761 45.7477V54.7306C29.2761 55.9829 30.2924 56.9998 31.5461 56.9998H41.2436C42.4973 56.9998 43.5135 55.9829 43.5135 54.7306V49.2242C43.5135 45.5021 39.5972 40.3536 37.6934 38.1959C33.0051 32.8823 28.3135 29.9486 19.0935 29.9486H15.5558C18.6455 35.7863 26.5077 38.9988 31.5955 39.1906C25.864 39.2626 18.2015 36.2882 15 30.3975C15.2001 38.6708 20.9128 43.5924 29.2761 44.1862C34.2776 44.5412 39.1444 44.3978 40.8472 46.9202C41.7083 48.197 41.6248 49.3408 41.6248 50.9042L41.6219 54.7306C41.6217 54.9393 41.4523 55.1091 41.2432 55.1091H31.5461C31.3372 55.1091 31.1678 54.9393 31.1678 54.7306C31.1678 54.7306 31.1678 50.0406 31.1678 48.3812C31.1678 45.9564 29.2761 45.7477 29.2761 45.7477Z" fill="white"/>
</svg>
