<svg width="22" height="19" viewBox="0 0 22 19" fill="none" xmlns="http://www.w3.org/2000/svg">
<path fill-rule="evenodd" clip-rule="evenodd" d="M6.41602 5.33333H5.95772V16.3333H16.041V5.33333H15.5827H6.41602ZM17.8743 5.33333V16.3333H18.3327C18.839 16.3333 19.2494 15.9229 19.2494 15.4167V6.25C19.2494 5.74374 18.839 5.33333 18.3327 5.33333H17.8743ZM3.66605 5.33333H4.12438V16.3333H3.66605C3.15979 16.3333 2.74938 15.9229 2.74938 15.4167V6.25C2.74938 5.74374 3.15979 5.33333 3.66605 5.33333ZM15.5827 3.49999H18.3327C19.8515 3.49999 21.0827 4.73121 21.0827 6.24999V15.4167C21.0827 16.9354 19.8515 18.1667 18.3327 18.1667H3.66602C2.14723 18.1667 0.916016 16.9354 0.916016 15.4167V6.24999C0.916016 4.73121 2.14723 3.49999 3.66602 3.49999H6.41602C6.41602 1.98121 7.64723 0.75 9.16602 0.75H12.8327C14.3515 0.75 15.5827 1.98121 15.5827 3.49999ZM13.7494 3.49999C13.7494 2.99373 13.339 2.58332 12.8327 2.58332H9.16605C8.65979 2.58332 8.24938 2.99373 8.24938 3.49999H13.7494Z" fill="#92929D"/>
</svg>
