<svg width="28" height="36" viewBox="0 0 28 36" fill="none" xmlns="http://www.w3.org/2000/svg">
<g filter="url(#filter0_i)">
<path d="M28 6.20152V5.57746V5.42145V5.10943C28 4.95341 28 4.7974 28 4.64139C27.8454 3.39328 26.9176 2.14518 25.8352 1.52113C25.2167 1.2091 24.5982 1.05309 23.9797 1.05309C23.3612 1.05309 23.0519 1.05309 22.5881 1.05309C19.6501 1.05309 16.5576 1.05309 13.6197 1.2091L12.2281 0.11701C11.7642 -0.0390032 11.4549 -0.0390032 11.1457 0.11701L9.13552 1.52113C8.67164 1.83315 8.67164 2.61322 9.13552 2.92524L11.1457 4.32936C11.4549 4.64139 11.7642 4.64139 12.0734 4.32936L13.4651 3.23727C16.403 3.23727 19.4955 3.39328 22.4334 3.39328C22.8973 3.39328 23.3612 3.39328 23.6704 3.39328C23.9797 3.39328 24.1343 3.5493 24.4436 3.5493C24.9075 3.86132 25.2167 4.32936 25.3713 4.7974V4.95341V5.10943V5.26544V5.88949V7.29361C25.3713 8.22968 25.3713 9.00975 25.2167 9.78981C24.5982 13.0661 22.5881 15.8743 19.6501 17.4345C18.2585 18.2145 16.7122 18.6826 15.0113 18.8386C14.3928 18.8386 13.6197 18.8386 12.6919 18.8386L12.5373 17.1224C18.4131 16.4984 22.8973 11.662 22.8973 5.57746H0.167159C0.167159 11.662 4.80596 16.4984 10.5272 17.1224L10.3725 18.8386H9.75402H6.97074H3.72358H3.56895H3.2597C3.10507 18.8386 2.95044 18.8386 2.79581 18.9946C2.02268 19.1506 1.40417 19.4626 0.940293 20.0867C0.0125321 21.1788 -0.296724 22.8949 0.321784 24.143C0.631037 24.7671 1.09492 25.3911 1.71343 25.7031C2.02268 25.8592 2.33193 26.0152 2.64119 26.1712C2.79581 26.1712 2.95045 26.1712 3.10507 26.3272C3.2597 26.3272 3.41432 26.3272 3.56895 26.3272H9.90866V28.5114H6.97074H6.35223C6.04298 28.5114 5.73373 28.5114 5.42448 28.6674C4.80597 28.8234 4.34209 29.1354 3.87821 29.6035C3.10507 30.3835 2.79582 31.7876 3.2597 32.7237C3.72358 31.7876 4.34208 31.3196 4.96059 31.0076C5.26984 30.8516 5.5791 30.8516 5.88835 30.6956C6.04298 30.6956 6.19761 30.6956 6.35223 30.6956H6.97074H9.5994L9.44477 33.0358H8.05313C6.50686 33.0358 5.11521 34.2839 5.11521 36H17.4854C17.4854 34.4399 16.2484 33.0358 14.5475 33.0358H13.1558V30.6956L15.3206 30.8516H19.9028C20.5213 30.8516 21.2944 30.6956 21.7583 30.3835C22.9953 29.6035 23.6138 28.1993 23.3046 26.7952C22.9953 25.3911 21.9129 24.299 20.5213 23.987C19.7482 23.831 16.2484 23.987 15.7845 23.987H14.3928H13.0012L12.8466 21.8028C13.6197 21.8028 14.3928 21.8028 15.166 21.8028C17.1761 21.6468 19.1863 21.0228 20.8872 20.0867C24.4436 18.0585 26.9176 14.4702 27.6908 10.5699C27.8454 9.6338 28 8.54171 27.8454 7.60563L28 6.20152ZM3.72358 23.831C2.64119 23.831 2.33194 22.7389 2.95045 22.1148C3.10507 21.9588 3.25969 21.9588 3.41432 21.8028H3.56895H3.72358H6.97074H9.75402H10.3725L10.2179 23.831H3.72358ZM14.3928 26.3272H15.7845C16.2484 26.3272 20.0574 26.3272 20.0574 26.3272C20.5213 26.3272 20.9852 26.7149 20.9852 27.3815C20.9852 28.0481 20.559 28.6674 19.9028 28.6674H15.3206L13.1657 28.4783L13.1558 26.3272H14.3928Z" fill="#555A6A"/>
</g>
<defs>
<filter id="filter0_i" x="-2" y="0" width="30" height="40" filterUnits="userSpaceOnUse" color-interpolation-filters="sRGB">
<feFlood flood-opacity="0" result="BackgroundImageFix"/>
<feBlend mode="normal" in="SourceGraphic" in2="BackgroundImageFix" result="shape"/>
<feColorMatrix in="SourceAlpha" type="matrix" values="0 0 0 0 0 0 0 0 0 0 0 0 0 0 0 0 0 0 127 0" result="hardAlpha"/>
<feOffset dx="-2" dy="4"/>
<feGaussianBlur stdDeviation="6"/>
<feComposite in2="hardAlpha" operator="arithmetic" k2="-1" k3="1"/>
<feColorMatrix type="matrix" values="0 0 0 0 0.976471 0 0 0 0 0.968627 0 0 0 0 0.913725 0 0 0 0.64 0"/>
<feBlend mode="normal" in2="shape" result="effect1_innerShadow"/>
</filter>
</defs>
</svg>
