<svg width="23" height="24" viewBox="0 0 23 24" fill="none" xmlns="http://www.w3.org/2000/svg">
<path d="M11.5008 0.799805C8.53142 0.799805 8.15877 0.813105 6.99254 0.867472C5.82858 0.922073 5.03409 1.11084 4.3389 1.38781C3.6198 1.67388 3.0098 2.05655 2.40209 2.67932C1.79391 3.30186 1.42035 3.92674 1.14018 4.66315C0.869126 5.37552 0.684624 6.18963 0.632235 7.38151C0.580073 8.57619 0.566406 8.95816 0.566406 11.9999C0.566406 15.0417 0.579617 15.4223 0.632463 16.6169C0.685991 17.8093 0.870265 18.6232 1.14041 19.3353C1.4199 20.0719 1.79346 20.6968 2.4014 21.3194C3.00889 21.9424 3.61889 22.326 4.33753 22.612C5.03318 22.889 5.8279 23.0778 6.99163 23.1324C8.15786 23.1867 8.53028 23.2 11.4994 23.2C14.469 23.2 14.8405 23.1867 16.0067 23.1324C17.1707 23.0778 17.9661 22.889 18.6617 22.612C19.3806 22.326 19.9897 21.9424 20.5972 21.3194C21.2053 20.6968 21.5789 20.0719 21.8591 19.3355C22.1278 18.6232 22.3124 17.809 22.367 16.6172C22.4194 15.4225 22.4331 15.0417 22.4331 11.9999C22.4331 8.95816 22.4194 8.57642 22.367 7.38174C22.3124 6.18939 22.1278 5.37552 21.8591 4.66338C21.5789 3.92674 21.2053 3.30186 20.5972 2.67932C19.989 2.05632 19.3808 1.67365 18.661 1.38781C17.964 1.11084 17.1691 0.922073 16.0051 0.867472C14.8389 0.813105 14.4676 0.799805 11.4973 0.799805H11.5008Z" fill="white"/>
<path d="M10.5194 2.81823C10.8105 2.81776 11.1354 2.81823 11.5003 2.81823C14.4195 2.81823 14.7655 2.82896 15.9183 2.88263C16.9843 2.93256 17.5629 3.11503 17.9483 3.26833C18.4585 3.47134 18.8223 3.71401 19.2047 4.10601C19.5874 4.49801 19.8243 4.87135 20.0229 5.39402C20.1725 5.78836 20.3509 6.38103 20.3994 7.47304C20.4518 8.65372 20.4632 9.00839 20.4632 11.9974C20.4632 14.9865 20.4518 15.3411 20.3994 16.5218C20.3507 17.6138 20.1725 18.2065 20.0229 18.6008C19.8247 19.1235 19.5874 19.4957 19.2047 19.8874C18.822 20.2794 18.4587 20.5221 17.9483 20.7251C17.5633 20.8791 16.9843 21.0611 15.9183 21.1111C14.7657 21.1647 14.4195 21.1764 11.5003 21.1764C8.5808 21.1764 8.2348 21.1647 7.08223 21.1111C6.01622 21.0607 5.43766 20.8782 5.05203 20.7249C4.5418 20.5219 4.17735 20.2792 3.79468 19.8872C3.41201 19.4952 3.17512 19.1228 2.9765 18.5999C2.82685 18.2056 2.64849 17.6129 2.59998 16.5209C2.54759 15.3402 2.53711 14.9855 2.53711 11.9946C2.53711 9.00373 2.54759 8.65092 2.59998 7.47024C2.64872 6.37823 2.82685 5.78556 2.9765 5.39076C3.17467 4.86808 3.41201 4.49475 3.79468 4.10274C4.17735 3.71074 4.5418 3.46807 5.05203 3.2646C5.43743 3.1106 6.01622 2.9286 7.08223 2.87843C8.09085 2.83176 8.48172 2.81776 10.5194 2.81543V2.81823Z" fill="#DADADA"/>
<path d="M17.3355 4.67771C16.6111 4.67771 16.0234 5.27902 16.0234 6.02126C16.0234 6.76327 16.6111 7.36527 17.3355 7.36527C18.0598 7.36527 18.6475 6.76327 18.6475 6.02126C18.6475 5.27925 18.0598 4.67725 17.3355 4.67725V4.67771Z" fill="#DADADA"/>
<path d="M11.4995 6.24805C8.39878 6.24805 5.88477 8.82337 5.88477 11.9998C5.88477 15.1762 8.39878 17.7503 11.4995 17.7503C14.6003 17.7503 17.1134 15.1762 17.1134 11.9998C17.1134 8.82337 14.6001 6.24805 11.4993 6.24805H11.4995Z" fill="#DADADA"/>
<path d="M11.5 8.2666C13.5126 8.2666 15.1444 9.93799 15.1444 12C15.1444 14.0617 13.5126 15.7333 11.5 15.7333C9.48706 15.7333 7.85547 14.0617 7.85547 12C7.85547 9.93799 9.48706 8.2666 11.5 8.2666Z" fill="#272C3B"/>
</svg>
