<svg width="319" height="38" viewBox="0 0 319 38" fill="none" xmlns="http://www.w3.org/2000/svg">
<g clip-path="url(#clip0)">
<path d="M144.318 6.5473V5.77703V5.64865V5.3919C144.318 5.26352 144.318 5.00676 144.318 4.87838C144.064 3.46622 143.174 2.31082 142.031 1.66892C141.396 1.28379 140.76 1.15541 140.125 1.15541C139.49 1.15541 139.109 1.15541 138.601 1.15541C135.425 1.15541 132.249 1.28379 129.2 1.28379L127.675 0.256761C127.421 4.54485e-06 126.913 4.54485e-06 126.659 0.256761L124.499 1.66892C123.991 2.05406 123.991 2.69595 124.499 3.08109L126.659 4.62163C126.913 4.87838 127.421 4.87838 127.675 4.62163L129.2 3.5946C132.376 3.5946 135.552 3.72298 138.601 3.72298C139.109 3.72298 139.617 3.72298 139.998 3.72298C140.252 3.72298 140.506 3.85136 140.76 3.97973C141.269 4.23649 141.65 4.75 141.65 5.26352C141.65 5.3919 141.65 5.3919 141.65 5.52027V5.64865V5.77703V6.5473V7.95946C141.65 8.85811 141.523 9.75676 141.396 10.527C140.76 13.8649 138.601 16.946 135.552 18.6149C134.027 19.5135 132.376 20.027 130.724 20.1554C129.962 20.1554 129.2 20.1554 128.31 20.1554L128.183 18.3581C134.281 17.7162 139.109 12.5811 139.109 6.16217H114.971C114.971 12.4527 119.799 17.7162 125.897 18.3581L125.77 20.2838H125.007H122.085H118.655H118.528H118.274C118.147 20.2838 117.893 20.2838 117.766 20.4122C117.004 20.5405 116.369 20.9257 115.86 21.5676C114.844 22.723 114.59 24.3919 115.225 25.8041C115.606 26.446 116.115 27.0878 116.75 27.473C117.131 27.6014 117.385 27.8581 117.766 27.8581C117.893 27.8581 118.147 27.9865 118.274 27.9865C118.528 27.9865 118.655 27.9865 118.782 27.9865H125.516L125.388 30.2973H122.467H121.704C121.323 30.2973 121.069 30.2973 120.815 30.4257C120.18 30.5541 119.672 30.9392 119.163 31.4527C118.274 32.3514 118.02 33.7635 118.528 34.6622C119.036 33.7635 119.672 33.1216 120.307 32.8649C120.688 32.7365 120.942 32.6081 121.196 32.6081C121.323 32.6081 121.45 32.6081 121.704 32.6081H122.467H125.261L125.134 35.0473H123.61C121.958 35.0473 120.561 36.4595 120.561 38.1284H133.646C133.646 36.4595 132.249 35.0473 130.597 35.0473H129.073L128.946 32.6081H130.978H132.376C133.011 32.6081 133.773 32.4797 134.408 32.0946C135.679 31.3243 136.314 29.7838 136.06 28.3716C135.806 26.9595 134.662 25.6757 133.138 25.4189C132.249 25.2905 131.995 25.4189 131.486 25.2905H130.089H128.565L128.437 23.1081C129.2 23.1081 129.962 23.1081 130.851 23.1081C133.011 22.9797 135.044 22.3378 136.822 21.1824C140.506 19.1284 143.174 15.277 143.936 11.1689C144.191 10.1419 144.191 8.98649 144.191 8.08784L144.318 6.5473ZM118.782 25.1622C117.766 25.2905 117.258 24.0068 117.893 23.3649C118.02 23.2365 118.274 23.1081 118.401 23.1081H118.528H118.655H118.782H122.212H125.134H125.77L125.643 25.1622H118.782ZM130.089 27.8581H131.486C131.868 27.8581 132.503 27.8581 132.63 27.8581C133.138 27.9865 133.519 28.3716 133.519 28.7568C133.646 29.2703 133.392 29.7838 133.011 30.0405C132.757 30.1689 132.63 30.2973 132.249 30.2973H130.851H128.692L128.565 27.9865L130.089 27.8581Z" fill="#FE5C64"/>
<path d="M30.1087 6.29054L23.6296 23.6216L16.7694 6.29054H9.78216L0 32.8649H6.98726L13.4663 15.4054L20.3266 32.8649H27.3138L33.6659 15.4054L40.5261 32.8649H47.6404L37.096 6.29054H30.1087Z" fill="#368AE9"/>
<path d="M49.8008 32.8649H74.3197V26.3176H56.2799V21.9527H71.6518V16.6892H56.2799V12.8378H74.3197V6.29054H49.8008V32.8649Z" fill="#368AE9"/>
<path d="M107.857 6.29054H83.4651V19.2568C83.4651 25.1622 81.9407 26.0608 81.3055 26.1892H77.3672V37.8716H83.8463V32.7365H104.173V37.8716H110.652V26.1892H107.73V6.29054H107.857ZM101.378 12.8378V26.3176H89.055C89.6902 24.3919 89.9442 22.2095 89.9442 19.5135V12.8378H101.378Z" fill="#368AE9"/>
<path d="M148.766 32.8649H155.245V12.8378H166.678V32.8649H173.158V6.29054H148.766V32.8649Z" fill="#59BAC3"/>
<path d="M191.958 5.64865H190.434C182.43 5.64865 175.824 11.9392 175.824 19.6419C175.824 27.3446 182.303 33.6351 190.434 33.6351H191.958C200.089 33.6351 206.568 27.3446 206.568 19.6419C206.568 11.9392 199.962 5.64865 191.958 5.64865ZM200.089 19.5135C200.089 23.6216 196.405 26.8311 191.958 26.8311H190.434C185.987 26.8311 182.303 23.4932 182.303 19.5135C182.303 15.4054 185.987 12.1959 190.434 12.1959H191.958C196.405 12.1959 200.089 15.5338 200.089 19.5135Z" fill="#59BAC3"/>
<path d="M225.244 6.29054H208.855V32.8649H215.335V22.0811H225.244C229.69 22.0811 233.374 18.4865 233.374 14.25C233.374 9.75676 229.69 6.29054 225.244 6.29054ZM215.335 12.1959H225.117C226.387 12.1959 227.403 13.0946 227.403 14.1216C227.403 15.1487 226.387 16.0473 225.117 16.0473H215.335V12.1959Z" fill="#59BAC3"/>
<path d="M260.435 6.29054H235.916V12.8378H244.936V32.8649H251.415V12.8378H260.435V6.29054Z" fill="#59BAC3"/>
<path d="M269.962 6.29054L257.766 32.8649H264.88L268.056 26.0608H278.219L281.522 32.8649H288.637L276.568 6.29054H269.962ZM273.265 14.8919L275.933 20.7973H270.597L273.265 14.8919Z" fill="#59BAC3"/>
<path d="M295.752 6.29055V19.2568C295.752 26.446 293.592 26.446 292.449 26.446H290.543V32.9933H292.449C296.895 32.9933 302.231 30.6824 302.231 19.3851V12.7095H312.394V32.7365H318.873V6.16217L295.752 6.29055Z" fill="#59BAC3"/>
</g>
<defs>
<clipPath id="clip0">
<rect width="319" height="38" fill="white"/>
</clipPath>
</defs>
</svg>
