<svg width="29" height="37" viewBox="0 0 29 37" fill="none" xmlns="http://www.w3.org/2000/svg">
<path d="M29 6.37378V5.73239V5.57205V5.25135C29 5.09101 29 4.93066 29 4.77031C28.8399 3.48754 27.879 2.20477 26.7579 1.56338C26.1173 1.24269 25.4767 1.08234 24.8361 1.08234C24.1955 1.08234 23.8752 1.08234 23.3948 1.08234C20.3519 1.08234 17.1489 1.08234 14.1061 1.24269L12.6648 0.12026C12.1843 -0.0400867 11.864 -0.0400867 11.5437 0.12026L9.46179 1.56338C8.98134 1.88407 8.98134 2.68581 9.46179 3.0065L11.5437 4.44962C11.864 4.77031 12.1843 4.77031 12.5046 4.44962L13.946 3.32719C16.9888 3.32719 20.1918 3.48754 23.2346 3.48754C23.7151 3.48754 24.1955 3.48754 24.5158 3.48754C24.8361 3.48754 24.9963 3.64789 25.3166 3.64789C25.797 3.96858 26.1173 4.44962 26.2775 4.93066V5.09101V5.25135V5.4117V6.05309V7.49621C26.2775 8.45829 26.2775 9.26002 26.1173 10.0618C25.4767 13.429 23.3948 16.3153 20.3519 17.9187C18.9106 18.7205 17.3091 19.2015 15.5475 19.3619C14.9069 19.3619 14.1061 19.3619 13.1452 19.3619L12.9851 17.598C19.0707 16.9567 23.7151 11.9859 23.7151 5.73239H0.173129C0.173129 11.9859 4.9776 16.9567 10.9031 17.598L10.743 19.3619H10.1024H7.2197H3.85657H3.69641H3.37611C3.21597 19.3619 3.05581 19.3619 2.89566 19.5222C2.09492 19.6826 1.45432 20.0032 0.973875 20.6446C0.0129796 21.7671 -0.307321 23.5309 0.333276 24.8136C0.653574 25.455 1.13402 26.0964 1.77462 26.4171C2.09492 26.5775 2.41522 26.7378 2.73552 26.8982C2.89566 26.8982 3.05582 26.8982 3.21597 27.0585C3.37612 27.0585 3.53626 27.0585 3.69641 27.0585H10.2625V29.3034H7.2197H6.5791C6.2588 29.3034 5.93851 29.3034 5.61821 29.4637C4.97761 29.624 4.49716 29.9447 4.01671 30.4258C3.21597 31.2275 2.89567 32.6706 3.37611 33.6327C3.85656 32.6706 4.49716 32.1896 5.13775 31.8689C5.45805 31.7086 5.77835 31.7086 6.09865 31.5482C6.2588 31.5482 6.41895 31.5482 6.5791 31.5482H7.2197H9.94223L9.78209 33.9534H8.34074C6.73925 33.9534 5.2979 35.2362 5.2979 37H18.1098C18.1098 35.3965 16.8287 33.9534 15.067 33.9534H13.6257V31.5482L15.8678 31.7086H20.6136C21.2542 31.7086 22.055 31.5482 22.5354 31.2275C23.8166 30.4258 24.4572 28.9827 24.1369 27.5395C23.8166 26.0964 22.6955 24.974 21.2542 24.6533C20.4535 24.493 16.8287 24.6533 16.3482 24.6533H14.9069H13.4655L13.3054 22.4084C14.1061 22.4084 14.9069 22.4084 15.7076 22.4084C17.7895 22.2481 19.8715 21.6067 21.6331 20.6446C25.3166 18.5601 27.879 14.8722 28.6797 10.8635C28.8399 9.90141 29 8.77898 28.8399 7.8169L29 6.37378ZM3.85657 24.493C2.73552 24.493 2.41522 23.3705 3.05582 22.7291C3.21597 22.5688 3.37611 22.5688 3.53626 22.4084H3.69641H3.85657H7.2197H10.1024H10.743L10.5828 24.493H3.85657ZM14.9069 27.0585H16.3482C16.8287 27.0585 20.7738 27.0585 20.7738 27.0585C21.2542 27.0585 21.7347 27.4569 21.7347 28.1421C21.7347 28.8272 21.2932 29.4637 20.6136 29.4637H15.8678L13.6359 29.2693L13.6257 27.0585H14.9069Z" fill="#B3D8E0"/>
</svg>
