<svg width="13" height="21" viewBox="0 0 13 21" fill="none" xmlns="http://www.w3.org/2000/svg">
<path d="M6.13652 10.8372C9.15947 10.8372 11.6168 8.40695 11.6168 5.41939C11.6168 2.43084 9.15947 0 6.13652 0C3.11422 0 0.65625 2.43084 0.65625 5.41939C0.65625 8.40695 3.11422 10.8372 6.13652 10.8372Z" fill="#FFFFFE"/>
<path d="M8.36739 15.2604C9.48292 15.0092 10.5588 14.5727 11.5497 13.9573C12.2996 13.4898 12.5255 12.5096 12.053 11.768C11.5809 11.0249 10.5903 10.8011 9.83902 11.2687C7.59419 12.6646 4.70404 12.6642 2.46051 11.2687C1.70928 10.8011 0.718356 11.0249 0.247157 11.768C-0.225353 12.5102 -8.26816e-05 13.4898 0.749835 13.9573C1.74076 14.5721 2.81662 15.0092 3.93215 15.2604L0.868209 18.2902C0.241911 18.9101 0.241911 19.9153 0.868864 20.5352C1.18267 20.8449 1.59321 20.9999 2.00374 20.9999C2.41493 20.9999 2.82613 20.8449 3.13993 20.5352L6.14944 17.558L9.16157 20.5352C9.78787 21.1552 10.804 21.1552 11.431 20.5352C12.0586 19.9153 12.0586 18.9095 11.431 18.2902L8.36739 15.2604Z" fill="#FFFFFE"/>
<path d="M6.13629 3.17578C7.38757 3.17578 8.40539 4.1819 8.40539 5.41921C8.40539 6.65555 7.38757 7.66232 6.13629 7.66232C4.88599 7.66232 3.86719 6.65555 3.86719 5.41921C3.86719 4.1819 4.88599 3.17578 6.13629 3.17578Z" fill="#272C3B"/>
</svg>
