<svg width="28" height="28" viewBox="0 0 28 28" fill="none" xmlns="http://www.w3.org/2000/svg">
<path fill-rule="evenodd" clip-rule="evenodd" d="M5.46404 20.5766C1.29063 16.4032 1.29063 9.63679 5.46404 5.46339C9.63744 1.28999 16.4039 1.28999 20.5773 5.46339C24.392 9.27809 24.7198 15.2592 21.5609 19.4464L25.7774 23.6629C26.8773 24.7628 25.2274 26.4127 24.1275 25.3128L19.9613 21.1467C15.7627 24.7405 9.43787 24.5504 5.46404 20.5766ZM18.9273 7.1133C15.6652 3.85112 10.3761 3.85112 7.11395 7.1133C3.85177 10.3755 3.85177 15.6645 7.11395 18.9267C10.3761 22.1889 15.6652 22.1889 18.9273 18.9267C22.1895 15.6645 22.1895 10.3755 18.9273 7.1133Z" fill="#92929D"/>
</svg>
