<svg width="19" height="19" viewBox="0 0 19 19" fill="none" xmlns="http://www.w3.org/2000/svg">
<path d="M10.459 0.875C10.7131 0.875 10.9569 0.975967 11.1366 1.15569C11.3163 1.33541 11.4173 1.57917 11.4173 1.83333V6.17937L15.1816 4.00683C15.4017 3.87976 15.6633 3.84532 15.9088 3.9111C16.1543 3.97687 16.3636 4.13748 16.4907 4.35758L17.4491 6.01742C17.5761 6.23753 17.6106 6.4991 17.5448 6.7446C17.479 6.9901 17.3184 7.19941 17.0983 7.3265L13.3349 9.5L17.0983 11.6745C17.3184 11.8015 17.479 12.0109 17.5448 12.2564C17.6106 12.5019 17.5761 12.7634 17.4491 12.9835L16.4907 14.6434C16.3636 14.8635 16.1543 15.0241 15.9088 15.0899C15.6633 15.1556 15.4017 15.1212 15.1816 14.9941L11.4173 12.8197V17.1667C11.4173 17.4208 11.3163 17.6646 11.1366 17.8443C10.9569 18.024 10.7131 18.125 10.459 18.125H8.5423C8.28814 18.125 8.04438 18.024 7.86466 17.8443C7.68494 17.6646 7.58397 17.4208 7.58397 17.1667V12.8197L3.81963 14.9932C3.59953 15.1202 3.33795 15.1547 3.09245 15.0889C2.84695 15.0231 2.63764 14.8625 2.51055 14.6424L1.55222 12.9826C1.42514 12.7625 1.3907 12.5009 1.45648 12.2554C1.52226 12.0099 1.68287 11.8006 1.90297 11.6735L5.66634 9.5L1.90297 7.3265C1.68287 7.19941 1.52226 6.9901 1.45648 6.7446C1.3907 6.4991 1.42514 6.23753 1.55222 6.01742L2.51055 4.35758C2.63764 4.13748 2.84695 3.97687 3.09245 3.9111C3.33795 3.84532 3.59953 3.87976 3.81963 4.00683L7.58397 6.17937V1.83333C7.58397 1.57917 7.68494 1.33541 7.86466 1.15569C8.04438 0.975967 8.28814 0.875 8.5423 0.875H10.459Z" stroke="#92929D" stroke-width="1.7" stroke-linecap="round" stroke-linejoin="round"/>
</svg>
