<svg width="24" height="20" viewBox="0 0 24 20" fill="none" xmlns="http://www.w3.org/2000/svg">
<path d="M0.362429 9.24433C2.81733 7.89214 5.55765 6.76353 8.11808 5.62918C12.523 3.77121 16.9454 1.94543 21.4125 0.245656C22.2816 -0.0439515 23.8432 -0.327136 23.9964 0.960811C23.9125 2.78396 23.5676 4.59644 23.331 6.40891C22.7305 10.3947 22.0364 14.3669 21.3596 18.3395C21.1264 19.6629 19.4687 20.3478 18.4081 19.501C15.859 17.7792 13.2904 16.0741 10.7739 14.3124C9.94952 13.4748 10.7139 12.2719 11.4501 11.6738C13.5496 9.60474 15.7762 7.84687 17.7659 5.67092C18.3026 4.37485 16.7168 5.46713 16.1937 5.80184C13.3195 7.78249 10.5156 9.88407 7.48531 11.6248C5.93744 12.4769 4.13336 11.7487 2.58619 11.2733C1.19898 10.6989 -0.833837 10.1202 0.362288 9.2445L0.362429 9.24433Z" fill="white"/>
</svg>
