<svg width="32" height="32" viewBox="0 0 32 32" fill="none" xmlns="http://www.w3.org/2000/svg">
<path d="M16 14C18.2091 14 20 12.2091 20 10C20 7.79086 18.2091 6 16 6C13.7909 6 12 7.79086 12 10C12 12.2091 13.7909 14 16 14Z" stroke="white" stroke-width="2" stroke-linecap="round" stroke-linejoin="round"/>
<path d="M10 24V22C10 20.9391 10.4214 19.9217 11.1716 19.1716C11.9217 18.4214 12.9391 18 14 18H18C19.0609 18 20.0783 18.4214 20.8284 19.1716C21.5786 19.9217 22 20.9391 22 22V24" stroke="white" stroke-width="2" stroke-linecap="round" stroke-linejoin="round"/>
<circle cx="16" cy="16" r="15" stroke="white" stroke-width="2"/>
</svg>
