<svg width="24" height="17" viewBox="0 0 24 17" fill="none" xmlns="http://www.w3.org/2000/svg">
<path d="M22.7327 2.81387C22.4751 1.82424 21.716 1.04495 20.7522 0.780468C19.0055 0.299805 12.0008 0.299805 12.0008 0.299805C12.0008 0.299805 4.99607 0.299805 3.24925 0.780468C2.28542 1.04495 1.52636 1.82424 1.26876 2.81387C0.800781 4.60746 0.800781 8.3498 0.800781 8.3498C0.800781 8.3498 0.800781 12.092 1.26876 13.8857C1.52636 14.8754 2.28542 15.6547 3.24925 15.9193C4.99607 16.3998 12.0008 16.3998 12.0008 16.3998C12.0008 16.3998 19.0055 16.3998 20.7522 15.9193C21.716 15.6547 22.4751 14.8754 22.7327 13.8857C23.2008 12.092 23.2008 8.3498 23.2008 8.3498C23.2008 8.3498 23.2008 4.60746 22.7327 2.81387Z" fill="white"/>
<path d="M9.90039 12.2002V5.2002L15.5004 8.70033L9.90039 12.2002Z" fill="#272C3B"/>
</svg>
