<svg width="23" height="13" viewBox="0 0 23 13" fill="none" xmlns="http://www.w3.org/2000/svg">
<path d="M12.2985 12.4916C12.2985 12.4916 12.7028 12.4475 12.9099 12.2292C13.0994 12.0291 13.0928 11.6517 13.0928 11.6517C13.0928 11.6517 13.0676 9.88905 13.9014 9.6288C14.7231 9.37285 15.7781 11.3333 16.8978 12.0872C17.7436 12.6572 18.3856 12.5324 18.3856 12.5324L21.3776 12.4916C21.3776 12.4916 22.9421 12.3969 22.2004 11.1892C22.1391 11.0903 21.7677 10.2956 19.9764 8.66307C18.0996 6.95422 18.3516 7.23061 20.6107 4.27427C21.9868 2.47401 22.5368 1.37493 22.3648 0.90497C22.2015 0.455444 21.1892 0.574816 21.1892 0.574816L17.8214 0.595249C17.8214 0.595249 17.5716 0.561911 17.3864 0.670528C17.2057 0.776995 17.0884 1.02542 17.0884 1.02542C17.0884 1.02542 16.556 2.41809 15.8449 3.60321C14.3451 6.10249 13.7458 6.23476 13.5004 6.0799C12.9296 5.71749 13.072 4.62593 13.072 3.85055C13.072 1.42763 13.4467 0.417804 12.3434 0.156476C11.9775 0.069367 11.708 0.0123696 10.7713 0.00269074C9.56943 -0.00913891 8.55272 0.00699245 7.97645 0.283376C7.59299 0.467273 7.29718 0.878085 7.47796 0.901744C7.70036 0.93078 8.20433 1.0351 8.47165 1.39214C8.81676 1.85349 8.80471 2.88805 8.80471 2.88805C8.80471 2.88805 9.00301 5.74007 8.34128 6.09388C7.8877 6.33693 7.26541 5.84116 5.9277 3.57309C5.24296 2.41164 4.72585 1.12758 4.72585 1.12758C4.72585 1.12758 4.62615 0.887764 4.44757 0.758713C4.23174 0.602777 3.93045 0.554383 3.93045 0.554383L0.730249 0.574816C0.730249 0.574816 0.249288 0.587721 0.0728984 0.793126C-0.0837702 0.974873 0.060847 1.35235 0.060847 1.35235C0.060847 1.35235 2.56645 7.10693 5.40401 10.0073C8.00603 12.6658 10.9597 12.4916 10.9597 12.4916H12.2985Z" fill="white"/>
</svg>
